<?xml version="1.0" encoding="UTF-8" standalone="no"?>
<!-- Generator: Adobe Illustrator 15.0.2, SVG Export Plug-In  -->

<svg xmlns:dc="http://purl.org/dc/elements/1.1/" 
    xmlns:cc="http://creativecommons.org/ns#" 
    xmlns:rdf="http://www.w3.org/1999/02/22-rdf-syntax-ns#" 
    xmlns:svg="http://www.w3.org/2000/svg" 
    xmlns="http://www.w3.org/2000/svg" 
    xmlns:sodipodi="http://sodipodi.sourceforge.net/DTD/sodipodi-0.dtd" 
    xmlns:inkscape="http://www.inkscape.org/namespaces/inkscape" version="1.1" x="0px" y="0px" width="86.940002" height="86.940002" viewBox="-242.8 -260.2 86.940002 86.940002" style="overflow:visible" xml:space="preserve" id="svg2" inkscape:version="0.48.4 r9939" sodipodi:docname="kitconcept-logo-blau-standalone.svg">
    <metadata id="metadata32">
        <rdf:RDF>
            <cc:Work rdf:about="">
                <dc:format>image/svg+xml</dc:format>
                <dc:type rdf:resource="http://purl.org/dc/dcmitype/StillImage" />
                <dc:title></dc:title>
            </cc:Work>
        </rdf:RDF>
    </metadata>
    <sodipodi:namedview pagecolor="#ffffff" bordercolor="#666666" borderopacity="1" objecttolerance="10" gridtolerance="10" guidetolerance="10" inkscape:pageopacity="0" inkscape:pageshadow="2" inkscape:window-width="1243" inkscape:window-height="716" id="namedview30" showgrid="true" fit-margin-top="0" fit-margin-left="0" fit-margin-right="0" fit-margin-bottom="0" inkscape:zoom="4.3131834" inkscape:cx="85.521413" inkscape:cy="22.78212" inkscape:window-x="59" inkscape:window-y="24" inkscape:window-maximized="0" inkscape:current-layer="svg2" showguides="false" inkscape:snap-global="false">
        <inkscape:grid type="xygrid" id="grid3046" empspacing="5" visible="true" enabled="true" snapvisiblegridlinesonly="true" />
    </sodipodi:namedview>
    <style type="text/css" id="style4">
	.st0{fill:#004876;}
    </style>
    <defs id="defs6" />
    <path class="st0" d="m -156.675,-219.56064 -18.7,-32.3 c -1.1,-1.9 -3.1,-3 -5.2,-3 h -37.5 c -2.1,0 -4.1,1.1 -5.2,2.9 l -18.7,32.4 c -1.1,1.9 -1.1,4.1 0,6 l 18.7,32.3 c 1.1,1.9 3.1,2.9 5.2,2.9 h 37.4 c 2.1,0 4.1,-1 5.2,-2.9 l 18.7,-32.3 c 1.2,-1.9 1.2,-4.1 0.1,-6 m -54.8,-15.8 h 4.5 v 14.6 l -4.5,8.5 v -23.1 z m -5.6,38.2 21.6,-38.2 h 5.4 l -21.6,38.2 h -5.4 z m 30,0 -6.6,-11.8 2.7,-4.8 9.3,16.6 h -5.4 z m -16.2,0 h -5.4 l 21.6,-38.2 h 5.4 l -21.6,38.2 z" id="path28" inkscape:connector-curvature="0" style="fill:#004876" />
</svg>
